<svg xmlns="http://www.w3.org/2000/svg" xmlns:xlink="http://www.w3.org/1999/xlink" width="1080" zoomAndPan="magnify" viewBox="0 0 810 809.999993" height="1080" preserveAspectRatio="xMidYMid meet" version="1.0"><defs><clipPath id="c2ca8c52a9"><path d="M 25.496094 25.496094 L 784.496094 25.496094 L 784.496094 784.496094 L 25.496094 784.496094 Z M 25.496094 25.496094 " clip-rule="nonzero"/></clipPath><clipPath id="d39cdcb602"><path d="M 267.242188 129.488281 L 542.492188 129.488281 L 542.492188 404.738281 L 267.242188 404.738281 Z M 267.242188 129.488281 " clip-rule="nonzero"/></clipPath><clipPath id="9739d5197d"><path d="M 144.523438 418.359375 L 665.773438 418.359375 L 665.773438 679.359375 L 144.523438 679.359375 Z M 144.523438 418.359375 " clip-rule="nonzero"/></clipPath><clipPath id="b71956e300"><path d="M 287.925781 150.167969 L 521.925781 150.167969 L 521.925781 384.167969 L 287.925781 384.167969 Z M 287.925781 150.167969 " clip-rule="nonzero"/></clipPath><clipPath id="63a887137d"><path d="M 298.421875 160.664062 L 511.421875 160.664062 L 511.421875 373.664062 L 298.421875 373.664062 Z M 298.421875 160.664062 " clip-rule="nonzero"/></clipPath></defs><g clip-path="url(#c2ca8c52a9)"><path fill="#ffffff" d="M 404.996094 25.496094 C 195.324219 25.496094 25.496094 195.324219 25.496094 404.996094 C 25.496094 614.671875 195.324219 784.496094 404.996094 784.496094 C 614.671875 784.496094 784.496094 614.671875 784.496094 404.996094 C 784.496094 195.324219 614.671875 25.496094 404.996094 25.496094 Z M 404.996094 708.597656 C 237.257812 708.597656 101.398438 572.738281 101.398438 404.996094 C 101.398438 237.257812 237.257812 101.398438 404.996094 101.398438 C 572.738281 101.398438 708.597656 237.257812 708.597656 404.996094 C 708.597656 572.738281 572.738281 708.597656 404.996094 708.597656 Z M 404.996094 708.597656 " fill-opacity="1" fill-rule="nonzero"/></g><g clip-path="url(#d39cdcb602)"><path fill="#ffffff" d="M 404.867188 129.488281 C 328.832031 129.488281 267.242188 191.074219 267.242188 267.113281 C 267.242188 343.148438 328.832031 404.738281 404.867188 404.738281 C 480.90625 404.738281 542.492188 343.148438 542.492188 267.113281 C 542.492188 191.074219 480.90625 129.488281 404.867188 129.488281 Z M 404.867188 377.210938 C 344.039062 377.210938 294.769531 327.941406 294.769531 267.113281 C 294.769531 206.28125 344.039062 157.011719 404.867188 157.011719 C 465.699219 157.011719 514.96875 206.28125 514.96875 267.113281 C 514.96875 327.941406 465.699219 377.210938 404.867188 377.210938 Z M 404.867188 377.210938 " fill-opacity="1" fill-rule="nonzero"/></g><g clip-path="url(#9739d5197d)"><path fill="#ffffff" d="M 222.226562 679.359375 C 222.226562 578.398438 304.113281 496.394531 404.929688 496.394531 C 505.746094 496.394531 587.628906 578.398438 587.628906 679.359375 L 665.554688 679.359375 C 665.554688 535.191406 548.890625 418.359375 404.929688 418.359375 C 260.96875 418.359375 144.746094 535.191406 144.746094 679.359375 Z M 222.226562 679.359375 " fill-opacity="1" fill-rule="nonzero"/></g><g clip-path="url(#b71956e300)"><path fill="#ffffff" d="M 404.925781 150.167969 C 340.28125 150.167969 287.925781 202.527344 287.925781 267.167969 C 287.925781 331.8125 340.28125 384.167969 404.925781 384.167969 C 469.566406 384.167969 521.925781 331.8125 521.925781 267.167969 C 521.925781 202.527344 469.566406 150.167969 404.925781 150.167969 Z M 404.925781 360.769531 C 353.210938 360.769531 311.324219 318.882812 311.324219 267.167969 C 311.324219 215.457031 353.210938 173.570312 404.925781 173.570312 C 456.640625 173.570312 498.527344 215.457031 498.527344 267.167969 C 498.527344 318.882812 456.640625 360.769531 404.925781 360.769531 Z M 404.925781 360.769531 " fill-opacity="1" fill-rule="nonzero"/></g><g clip-path="url(#63a887137d)"><path fill="#ffffff" d="M 404.921875 160.664062 C 346.078125 160.664062 298.421875 208.324219 298.421875 267.164062 C 298.421875 326.007812 346.078125 373.664062 404.921875 373.664062 C 463.761719 373.664062 511.421875 326.007812 511.421875 267.164062 C 511.421875 208.324219 463.761719 160.664062 404.921875 160.664062 Z M 404.921875 352.363281 C 357.847656 352.363281 319.722656 314.238281 319.722656 267.164062 C 319.722656 220.089844 357.847656 181.964844 404.921875 181.964844 C 451.992188 181.964844 490.121094 220.089844 490.121094 267.164062 C 490.121094 314.238281 451.992188 352.363281 404.921875 352.363281 Z M 404.921875 352.363281 " fill-opacity="1" fill-rule="nonzero"/></g></svg>